<svg width="44" height="44" fill="none" xmlns="http://www.w3.org/2000/svg"><path fill-rule="evenodd" clip-rule="evenodd" d="M36.748 24.115v11.89c0 2.127-1.667 3.87-3.704 3.87H10.98c-2.038 0-3.705-1.743-3.705-3.87v-11.89h11.458v5.164l3.279 2.154 3.278-2.154v-5.164h11.458z" fill="url(#paint0_linear)"/><path fill-rule="evenodd" clip-rule="evenodd" d="M19.881 24.115v4.543l2.13 1.4 2.13-1.4v-4.543h-4.26z" fill="url(#paint1_linear)"/><path fill-rule="evenodd" clip-rule="evenodd" d="M8.3 10.41h27.422c1.295 0 2.352 1.175 2.352 2.61v7.049c0 1.435-1.057 2.61-2.352 2.61H8.301c-1.295 0-2.352-1.175-2.352-2.61v-7.05c0-1.434 1.057-2.608 2.352-2.608z" fill="url(#paint2_linear)"/><path fill-rule="evenodd" clip-rule="evenodd" d="M16.302 4.094h11.42c1.06 0 1.928.868 1.928 1.929v3.01h-2.446v-1.78a.875.875 0 00-.871-.872H17.69a.875.875 0 00-.871.873v1.778h-2.446v-3.01c0-1.06.868-1.928 1.929-1.928z" fill="url(#paint3_linear)"/><defs><linearGradient id="paint0_linear" x1="22.012" y1="24.115" x2="22.012" y2="39.875" gradientUnits="userSpaceOnUse"><stop stop-color="#EF8080"/><stop offset="1" stop-color="#F0145A"/></linearGradient><linearGradient id="paint1_linear" x1="22.011" y1="24.115" x2="22.011" y2="30.058" gradientUnits="userSpaceOnUse"><stop stop-color="#EF8080"/><stop offset="1" stop-color="#F0145A"/></linearGradient><linearGradient id="paint2_linear" x1="22.012" y1="10.411" x2="22.012" y2="22.678" gradientUnits="userSpaceOnUse"><stop stop-color="#EF8080"/><stop offset="1" stop-color="#F0145A"/></linearGradient><linearGradient id="paint3_linear" x1="22.012" y1="4.094" x2="22.012" y2="9.032" gradientUnits="userSpaceOnUse"><stop stop-color="#EF8080"/><stop offset="1" stop-color="#F0145A"/></linearGradient></defs></svg>