<svg width="44" height="44" fill="none" xmlns="http://www.w3.org/2000/svg"><path d="M28.879 38.5H15.816v4.125H28.88V38.5z" fill="#000"/><path d="M28.879 38.5H15.816v4.125H28.88V38.5z" fill="url(#paint0_linear)"/><path d="M10.431 1.686l-9.236 9.236 2.43 2.431 9.237-9.236-2.43-2.431z" fill="#000"/><path d="M10.431 1.686l-9.236 9.236 2.43 2.431 9.237-9.236-2.43-2.431z" fill="url(#paint1_linear)"/><path d="M33.765 1.596l-2.43 2.43 9.236 9.238L43 10.832l-9.236-9.237z" fill="#000"/><path d="M33.765 1.596l-2.43 2.43 9.236 9.238L43 10.832l-9.236-9.237z" fill="url(#paint2_linear)"/><path d="M30.633 6.673l-1.85-.078a3.477 3.477 0 00-2.945.984l-3.785 3.785-3.955-3.956a2.64 2.64 0 00-2.653-.625 2.487 2.487 0 01-2.482-.62l-.587-.588-7.292 7.292 1.188 1.188-.079 1.85a3.477 3.477 0 00.985 2.945l6.608 6.608a3.427 3.427 0 011.162-2.24l-2.059-2.059.487-.486 2.15 2.15a3.43 3.43 0 01.978-.371v-2.54l-1.184-1.184.486-.486.698.698v-3.678a2.482 2.482 0 012.16-2.492c.228-.022.457-.012.682.03l-.846-.845.487-.486 1.235 1.235a2.434 2.434 0 012.34-1.312 2.476 2.476 0 012.182 2.29c.39-.185.824-.264 1.255-.227a2.49 2.49 0 012.193 2.518v2.354a3.44 3.44 0 012.623 2.492l1.917-1.917.486.486-2.279 2.28.003.027v2.283a2.725 2.725 0 001.635-.776l4.703-4.703a2.64 2.64 0 00.624-2.652 2.488 2.488 0 01.621-2.482l.587-.588-7.292-7.292-1.188 1.188z" fill="#000"/><path d="M30.633 6.673l-1.85-.078a3.477 3.477 0 00-2.945.984l-3.785 3.785-3.955-3.956a2.64 2.64 0 00-2.653-.625 2.487 2.487 0 01-2.482-.62l-.587-.588-7.292 7.292 1.188 1.188-.079 1.85a3.477 3.477 0 00.985 2.945l6.608 6.608a3.427 3.427 0 011.162-2.24l-2.059-2.059.487-.486 2.15 2.15a3.43 3.43 0 01.978-.371v-2.54l-1.184-1.184.486-.486.698.698v-3.678a2.482 2.482 0 012.16-2.492c.228-.022.457-.012.682.03l-.846-.845.487-.486 1.235 1.235a2.434 2.434 0 012.34-1.312 2.476 2.476 0 012.182 2.29c.39-.185.824-.264 1.255-.227a2.49 2.49 0 012.193 2.518v2.354a3.44 3.44 0 012.623 2.492l1.917-1.917.486.486-2.279 2.28.003.027v2.283a2.725 2.725 0 001.635-.776l4.703-4.703a2.64 2.64 0 00.624-2.652 2.488 2.488 0 01.621-2.482l.587-.588-7.292-7.292-1.188 1.188z" fill="url(#paint3_linear)"/><path d="M20.543 14.912a1.713 1.713 0 00-1.874-1.505 1.786 1.786 0 00-1.542 1.808v7.808a2.75 2.75 0 00-2.75 2.75v6.65a2.639 2.639 0 001.434 2.318 2.487 2.487 0 011.316 2.194v.83H27.44v-1.68l1.364-1.252a3.478 3.478 0 001.386-2.779V21.648a2.75 2.75 0 00-2.75-2.75v-2.972a1.803 1.803 0 00-1.565-1.834 1.714 1.714 0 00-1.844 1.443h.315v10.618h-.687V15.535h.343v-1.671a1.803 1.803 0 00-1.564-1.834 1.72 1.72 0 00-1.873 1.712v1.17h.344v10.617h-.688V14.912h.322zm-3.141 13.99h-.688v-5.5h.688v5.5zm9.694-9.79h.688v7.18h-.688v-7.18z" fill="#000"/><path d="M20.543 14.912a1.713 1.713 0 00-1.874-1.505 1.786 1.786 0 00-1.542 1.808v7.808a2.75 2.75 0 00-2.75 2.75v6.65a2.639 2.639 0 001.434 2.318 2.487 2.487 0 011.316 2.194v.83H27.44v-1.68l1.364-1.252a3.478 3.478 0 001.386-2.779V21.648a2.75 2.75 0 00-2.75-2.75v-2.972a1.803 1.803 0 00-1.565-1.834 1.714 1.714 0 00-1.844 1.443h.315v10.618h-.687V15.535h.343v-1.671a1.803 1.803 0 00-1.564-1.834 1.72 1.72 0 00-1.873 1.712v1.17h.344v10.617h-.688V14.912h.322zm-3.141 13.99h-.688v-5.5h.688v5.5zm9.694-9.79h.688v7.18h-.688v-7.18z" fill="url(#paint4_linear)"/><defs><linearGradient id="paint0_linear" x1="22.348" y1="38.5" x2="22.348" y2="42.625" gradientUnits="userSpaceOnUse"><stop stop-color="#EF8080"/><stop offset="1" stop-color="#F0145A"/></linearGradient><linearGradient id="paint1_linear" x1="5.813" y1="6.304" x2="8.244" y2="8.735" gradientUnits="userSpaceOnUse"><stop stop-color="#EF8080"/><stop offset="1" stop-color="#F0145A"/></linearGradient><linearGradient id="paint2_linear" x1="32.55" y1="2.812" x2="41.786" y2="12.048" gradientUnits="userSpaceOnUse"><stop stop-color="#EF8080"/><stop offset="1" stop-color="#F0145A"/></linearGradient><linearGradient id="paint3_linear" x1="22.098" y1="5.485" x2="22.098" y2="25.459" gradientUnits="userSpaceOnUse"><stop stop-color="#EF8080"/><stop offset="1" stop-color="#F0145A"/></linearGradient><linearGradient id="paint4_linear" x1="22.284" y1="12.023" x2="22.284" y2="37.766" gradientUnits="userSpaceOnUse"><stop stop-color="#EF8080"/><stop offset="1" stop-color="#F0145A"/></linearGradient></defs></svg>