<svg width="44" height="44" fill="none" xmlns="http://www.w3.org/2000/svg"><path d="M41.612 25.938a3.857 3.857 0 00-4.357.986l-.838-.348-2.393-.99c.34-1.137.523-2.34.523-3.586a12.51 12.51 0 00-.523-3.585l2.393-.991.839-.348a3.857 3.857 0 004.356.986 3.871 3.871 0 002.093-5.053 3.857 3.857 0 00-3.574-2.388 3.873 3.873 0 00-3.86 4.072l-.844.35-2.391.99a12.638 12.638 0 00-5.07-5.069l.991-2.391.35-.843a3.857 3.857 0 003.777-2.382A3.872 3.872 0 0029.512 0c-1.57 0-2.973.937-3.574 2.388a3.873 3.873 0 00.987 4.354l-.348.841-.991 2.393A12.509 12.509 0 0022 9.453a12.51 12.51 0 00-3.585.523l-.99-2.393-.35-.84a3.873 3.873 0 00.988-4.355A3.857 3.857 0 0014.489 0a3.872 3.872 0 00-3.572 5.348 3.857 3.857 0 003.777 2.382l.35.843.99 2.392a12.637 12.637 0 00-5.069 5.069l-2.392-.99-.843-.35a3.874 3.874 0 00-3.86-4.072c-1.57 0-2.974.937-3.574 2.388a3.872 3.872 0 003.571 5.347 3.857 3.857 0 002.878-1.28l.839.347 2.392.99A12.506 12.506 0 009.454 22c0 1.245.183 2.449.522 3.585l-2.392.991-.84.348a3.857 3.857 0 00-4.356-.986A3.872 3.872 0 00.296 30.99a3.857 3.857 0 003.573 2.388 3.873 3.873 0 003.86-4.072l.844-.35 2.392-.99a12.637 12.637 0 005.069 5.07l-.99 2.391-.35.843a3.857 3.857 0 00-3.777 2.382A3.872 3.872 0 0014.489 44c1.57 0 2.973-.937 3.573-2.388a3.873 3.873 0 00-.986-4.355l.348-.84.991-2.393c1.137.34 2.34.523 3.585.523 1.246 0 2.449-.183 3.585-.523l.991 2.393.349.84a3.874 3.874 0 00-.987 4.355A3.857 3.857 0 0029.512 44a3.872 3.872 0 003.572-5.348 3.857 3.857 0 00-3.778-2.382l-.349-.843-.99-2.392a12.637 12.637 0 005.068-5.069l2.392.99.844.35a3.874 3.874 0 003.86 4.072c1.57 0 2.973-.937 3.574-2.388a3.871 3.871 0 00-2.093-5.052zM22 31.968c-5.496 0-9.968-4.471-9.968-9.968s4.472-9.97 9.968-9.97c5.497 0 9.97 4.472 9.97 9.969 0 5.497-4.473 9.969-9.97 9.969z" fill="#000"/><path d="M41.612 25.938a3.857 3.857 0 00-4.357.986l-.838-.348-2.393-.99c.34-1.137.523-2.34.523-3.586a12.51 12.51 0 00-.523-3.585l2.393-.991.839-.348a3.857 3.857 0 004.356.986 3.871 3.871 0 002.093-5.053 3.857 3.857 0 00-3.574-2.388 3.873 3.873 0 00-3.86 4.072l-.844.35-2.391.99a12.638 12.638 0 00-5.07-5.069l.991-2.391.35-.843a3.857 3.857 0 003.777-2.382A3.872 3.872 0 0029.512 0c-1.57 0-2.973.937-3.574 2.388a3.873 3.873 0 00.987 4.354l-.348.841-.991 2.393A12.509 12.509 0 0022 9.453a12.51 12.51 0 00-3.585.523l-.99-2.393-.35-.84a3.873 3.873 0 00.988-4.355A3.857 3.857 0 0014.489 0a3.872 3.872 0 00-3.572 5.348 3.857 3.857 0 003.777 2.382l.35.843.99 2.392a12.637 12.637 0 00-5.069 5.069l-2.392-.99-.843-.35a3.874 3.874 0 00-3.86-4.072c-1.57 0-2.974.937-3.574 2.388a3.872 3.872 0 003.571 5.347 3.857 3.857 0 002.878-1.28l.839.347 2.392.99A12.506 12.506 0 009.454 22c0 1.245.183 2.449.522 3.585l-2.392.991-.84.348a3.857 3.857 0 00-4.356-.986A3.872 3.872 0 00.296 30.99a3.857 3.857 0 003.573 2.388 3.873 3.873 0 003.86-4.072l.844-.35 2.392-.99a12.637 12.637 0 005.069 5.07l-.99 2.391-.35.843a3.857 3.857 0 00-3.777 2.382A3.872 3.872 0 0014.489 44c1.57 0 2.973-.937 3.573-2.388a3.873 3.873 0 00-.986-4.355l.348-.84.991-2.393c1.137.34 2.34.523 3.585.523 1.246 0 2.449-.183 3.585-.523l.991 2.393.349.84a3.874 3.874 0 00-.987 4.355A3.857 3.857 0 0029.512 44a3.872 3.872 0 003.572-5.348 3.857 3.857 0 00-3.778-2.382l-.349-.843-.99-2.392a12.637 12.637 0 005.068-5.069l2.392.99.844.35a3.874 3.874 0 003.86 4.072c1.57 0 2.973-.937 3.574-2.388a3.871 3.871 0 00-2.093-5.052zM22 31.968c-5.496 0-9.968-4.471-9.968-9.968s4.472-9.97 9.968-9.97c5.497 0 9.97 4.472 9.97 9.969 0 5.497-4.473 9.969-9.97 9.969z" fill="url(#paint0_linear)"/><path d="M22 14.61c-4.075 0-7.39 3.315-7.39 7.39 0 4.075 3.315 7.39 7.39 7.39 4.075 0 7.39-3.315 7.39-7.39 0-4.075-3.315-7.39-7.39-7.39zm1.29 10.226h-2.58v-5.672h2.578v5.672z" fill="#000"/><path d="M22 14.61c-4.075 0-7.39 3.315-7.39 7.39 0 4.075 3.315 7.39 7.39 7.39 4.075 0 7.39-3.315 7.39-7.39 0-4.075-3.315-7.39-7.39-7.39zm1.29 10.226h-2.58v-5.672h2.578v5.672z" fill="url(#paint1_linear)"/><defs><linearGradient id="paint0_linear" x1="22" y1="0" x2="22" y2="44" gradientUnits="userSpaceOnUse"><stop stop-color="#EF8080"/><stop offset="1" stop-color="#F0145A"/></linearGradient><linearGradient id="paint1_linear" x1="22" y1="14.609" x2="22" y2="29.39" gradientUnits="userSpaceOnUse"><stop stop-color="#EF8080"/><stop offset="1" stop-color="#F0145A"/></linearGradient></defs></svg>