<svg width="37" height="38" fill="none" xmlns="http://www.w3.org/2000/svg"><path d="M25.431 10.007a1.46 1.46 0 002.066 0l2.032-2.033c.57-.57.568-1.494 0-2.066L24.4.78a1.458 1.458 0 00-2.064 0l-2.033 2.032a1.46 1.46 0 000 2.064l5.13 5.13z" fill="url(#paint0_linear)"/><path d="M13.285 22.38c.57.569 1.494.569 2.064 0l2.033-2.033a1.46 1.46 0 000-2.065l-5.13-5.13a1.46 1.46 0 00-2.064 0l-2.033 2.033a1.461 1.461 0 000 2.065l5.13 5.13z" fill="url(#paint1_linear)"/><path d="M36.572 22.868l-2.062-2.065a1.46 1.46 0 00-2.064 0l-.905.904-8.732-8.734 1.892-1.892-5.247-5.245-1.893 1.892-2.41 2.408-1.85 1.85 5.247 5.247 1.852-1.85 8.731 8.733-.817.817a1.456 1.456 0 000 2.064l2.063 2.064a1.457 1.457 0 002.065 0l4.13-4.128a1.458 1.458 0 000-2.065z" fill="url(#paint2_linear)"/><path d="M21.32 29.141c0-.934-.757-1.693-1.693-1.693H6.404c-.935 0-1.693.759-1.693 1.693v2.749H.999v5.758h23.814V31.89H21.32v-2.75z" fill="url(#paint3_linear)"/><defs><linearGradient id="paint0_linear" x1="24.916" y1=".352" x2="24.916" y2="10.435" gradientUnits="userSpaceOnUse"><stop stop-color="#EF8080"/><stop offset="1" stop-color="#F0145A"/></linearGradient><linearGradient id="paint1_linear" x1="12.769" y1="12.725" x2="12.769" y2="22.807" gradientUnits="userSpaceOnUse"><stop stop-color="#EF8080"/><stop offset="1" stop-color="#F0145A"/></linearGradient><linearGradient id="paint2_linear" x1="25.151" y1="5.836" x2="25.151" y2="29.49" gradientUnits="userSpaceOnUse"><stop stop-color="#EF8080"/><stop offset="1" stop-color="#F0145A"/></linearGradient><linearGradient id="paint3_linear" x1="12.906" y1="27.448" x2="12.906" y2="37.648" gradientUnits="userSpaceOnUse"><stop stop-color="#EF8080"/><stop offset="1" stop-color="#F0145A"/></linearGradient></defs></svg>