<svg width="44" height="44" fill="none" xmlns="http://www.w3.org/2000/svg"><path d="M28.347 25.916a9.71 9.71 0 014.624 1.17c.256.138.49.302.73.46 2.31-4.523 3.53-9.308 3.53-13.975 0-.262 0-.533-.008-.804a.855.855 0 00-.669-.795c-5.11-1.117-9.739-3.884-13.377-7.997l-.542-.617A.83.83 0 0022 3.07c-.262-.034-.465.093-.626.27l-.829.915c-3.452 3.799-7.802 6.422-12.574 7.59l-.55.135a.831.831 0 00-.643.795c-.304 11.897 6.719 20.452 9.748 23.583a28.65 28.65 0 002.604 2.37 9.78 9.78 0 01-.514-3.08c0-5.367 4.365-9.732 9.73-9.732z" fill="url(#paint0_linear)"/><path d="M32.163 28.573a8.012 8.012 0 00-3.816-.965c-4.434 0-8.039 3.605-8.039 8.039 0 1.498.406 2.961 1.185 4.214a8.002 8.002 0 006.854 3.824c4.425 0 8.038-3.604 8.038-8.038a8.021 8.021 0 00-4.222-7.074zm.3 6.004l-6.287 4.892-2.146-3.357a.846.846 0 111.425-.912l1.147 1.794 4.822-3.753a.846.846 0 111.04 1.336z" fill="url(#paint1_linear)"/><defs><linearGradient id="paint0_linear" x1="22" y1="3.065" x2="22" y2="38.728" gradientUnits="userSpaceOnUse"><stop stop-color="#EF8080"/><stop offset="1" stop-color="#F0145A"/></linearGradient><linearGradient id="paint1_linear" x1="28.347" y1="27.608" x2="28.347" y2="43.685" gradientUnits="userSpaceOnUse"><stop stop-color="#EF8080"/><stop offset="1" stop-color="#F0145A"/></linearGradient></defs></svg>