<svg width="46" height="46" fill="none" xmlns="http://www.w3.org/2000/svg"><path d="M17.25 20.304c.768 0 1.391-.623 1.391-1.391v-5.426c0-2.426 1.974-4.4 4.4-4.4 2.425 0 4.4 1.974 4.4 4.4v5.426a1.391 1.391 0 002.782 0v-5.426c0-3.96-3.222-7.183-7.183-7.183-3.96 0-7.182 3.223-7.182 7.183v5.426c0 .768.624 1.391 1.392 1.391z" fill="url(#paint0_linear)"/><path d="M39 17.178h-7.385v1.735a2.785 2.785 0 01-2.783 2.783 2.785 2.785 0 01-2.782-2.783v-1.735h-6.017v1.735a2.785 2.785 0 01-2.783 2.783 2.785 2.785 0 01-2.782-2.783v-1.735H7c-.384 0-.621.303-.53.676l4.868 19.824c.294 1.114 1.467 2.018 2.619 2.018h18.087c1.153 0 2.324-.904 2.62-2.018l4.866-19.824c.091-.374-.145-.676-.53-.676z" fill="url(#paint1_linear)"/><path d="M20.635 24.67a.974.974 0 111.948 0v4.834-.939a.974.974 0 111.948 0v1.166c.008-.53.44-1.653.973-1.653.538 0 .974.436.974.974 0 0 .029.724.093.768.156-.33.492-1.255.881-1.255.538 0 .974.436.974.974v4.87a1.948 1.948 0 01-1.948 1.948h-3.256a3.896 3.896 0 01-2.754-1.141l-1.538-1.538-2.19-.98c.003-.93.731-1.211 1.46-1.211.628 0 1.192.098 2.435.73V24.67z" fill="#fff"/><defs><linearGradient id="paint0_linear" x1="23.041" y1="6.304" x2="23.041" y2="20.304" gradientUnits="userSpaceOnUse"><stop stop-color="#EF8080"/><stop offset="1" stop-color="#F0145A"/></linearGradient><linearGradient id="paint1_linear" x1="23" y1="17.178" x2="23" y2="39.696" gradientUnits="userSpaceOnUse"><stop stop-color="#EF8080"/><stop offset="1" stop-color="#F0145A"/></linearGradient></defs></svg>